<?xml version="1.0" standalone="no"?>
<!DOCTYPE svg PUBLIC "-//W3C//DTD SVG 20010904//EN"
 "http://www.w3.org/TR/2001/REC-SVG-20010904/DTD/svg10.dtd">
<svg version="1.0" xmlns="http://www.w3.org/2000/svg"
 width="500.000000pt" height="500.000000pt" viewBox="0 0 500.000000 500.000000"
 preserveAspectRatio="xMidYMid meet">

<g transform="translate(0.000000,500.000000) scale(0.100000,-0.100000)"
fill="#000000" stroke="none">
<path d="M2270 4474 c-179 -32 -385 -121 -523 -225 -82 -62 -105 -92 -87 -114
20 -24 36 -18 129 48 252 181 529 258 820 228 58 -6 106 -12 107 -14 1 -1 -15
-38 -37 -82 -183 -370 19 -818 420 -929 72 -21 73 -21 91 -68 23 -60 80 -138
130 -178 71 -56 146 -83 243 -88 l88 -5 -7 -41 c-25 -154 -138 -389 -246 -514
-32 -37 -34 -69 -5 -86 16 -9 24 -5 53 29 105 121 200 299 247 465 40 139 42
163 15 194 -21 24 -30 26 -113 29 -72 2 -101 8 -147 29 -80 37 -142 98 -179
177 -43 90 -52 98 -133 122 -117 35 -204 85 -276 158 -119 120 -171 246 -171
411 -1 116 15 181 73 294 36 71 38 81 27 108 -6 16 -19 33 -28 37 -58 31 -355
40 -491 15z"/>
<path d="M3113 4282 c-121 -41 -149 -74 -160 -186 -11 -118 17 -159 138 -205
91 -35 126 -38 175 -15 50 24 73 64 100 167 35 138 31 169 -35 231 -44 42
-110 44 -218 8z m180 -70 c23 -20 22 -74 -3 -164 -23 -84 -42 -108 -84 -108
-48 0 -147 42 -169 72 -18 24 -19 32 -8 84 6 32 19 66 28 76 22 24 161 68 193
61 14 -3 33 -13 43 -21z"/>
<path d="M2227 4093 c-16 -15 -5 -51 22 -77 60 -57 112 -5 55 55 -26 27 -62
38 -77 22z"/>
<path d="M1512 4019 c-259 -319 -341 -771 -211 -1164 67 -203 171 -367 324
-513 368 -353 871 -446 1352 -251 132 53 353 200 353 234 0 22 -29 45 -48 38
-9 -4 -37 -23 -62 -43 -112 -91 -289 -178 -439 -216 -531 -135 -1093 118
-1336 601 -91 181 -128 337 -127 535 0 268 77 498 239 714 55 73 62 88 53 106
-19 35 -46 23 -98 -41z"/>
<path d="M3563 4040 c-47 -28 -62 -85 -37 -137 56 -114 214 -78 214 51 0 30
-7 45 -34 72 -40 40 -92 46 -143 14z m99 -75 c8 -19 8 -28 -2 -40 -23 -28 -70
-12 -70 25 0 42 54 54 72 15z"/>
<path d="M2403 3835 c-33 -33 -34 -37 -21 -57 22 -33 33 -32 72 3 37 32 45 56
24 77 -20 20 -38 14 -75 -23z"/>
<path d="M1876 3815 c-76 -27 -126 -98 -126 -178 0 -57 14 -94 48 -131 90 -96
238 -82 307 28 96 156 -56 343 -229 281z m123 -80 c30 -15 61 -68 61 -104 0
-64 -65 -117 -133 -108 -60 8 -97 52 -97 113 0 39 5 51 34 80 38 38 86 45 135
19z"/>
<path d="M3352 3733 c-86 -42 -103 -103 -57 -207 35 -80 66 -106 124 -106 53
0 79 18 135 93 29 39 36 57 36 94 0 41 -5 50 -42 86 -42 40 -93 67 -125 66
-10 0 -42 -12 -71 -26z m125 -75 c52 -35 52 -59 3 -118 -55 -66 -75 -64 -112
10 -35 71 -35 84 5 109 41 27 63 26 104 -1z"/>
<path d="M2390 3533 c-40 -28 -49 -45 -50 -96 0 -40 5 -53 29 -77 50 -50 104
-52 160 -4 80 67 27 194 -81 194 -19 0 -45 -8 -58 -17z m81 -63 c34 -19 18
-70 -23 -70 -15 0 -38 27 -38 44 0 6 30 36 36 36 3 0 14 -5 25 -10z"/>
<path d="M1642 3308 c-17 -17 -15 -33 13 -88 29 -58 38 -64 65 -50 26 14 25
40 -1 93 -29 57 -52 70 -77 45z"/>
<path d="M2152 3188 c-18 -18 -15 -33 14 -68 20 -23 34 -30 53 -28 38 4 40 42
5 79 -30 31 -53 36 -72 17z"/>
<path d="M2777 3174 c-42 -22 -48 -29 -45 -52 4 -37 34 -39 97 -7 52 26 64 48
39 73 -17 17 -37 14 -91 -14z"/>
<path d="M1974 2999 c-18 -5 -48 -27 -68 -49 -31 -35 -36 -47 -36 -91 0 -80
41 -138 112 -157 109 -30 213 72 188 184 -11 46 -64 101 -110 114 -40 11 -44
11 -86 -1z m74 -80 c61 -21 65 -111 6 -138 -36 -16 -50 -14 -80 12 -44 38 -33
106 21 127 11 5 20 9 21 9 1 1 15 -4 32 -10z"/>
<path d="M3137 2999 c-23 -13 -22 -31 8 -89 28 -56 38 -64 65 -55 26 8 26 44
0 95 -24 46 -48 63 -73 49z"/>
<path d="M2709 2917 c-114 -43 -167 -151 -124 -255 57 -136 234 -164 328 -53
76 90 54 227 -46 286 -53 31 -112 39 -158 22z m106 -81 c40 -17 65 -60 65
-112 0 -28 -8 -44 -34 -70 -29 -29 -41 -34 -80 -34 -36 0 -52 6 -76 28 -60 53
-47 157 23 187 41 18 60 18 102 1z"/>
<path d="M2227 2544 c-37 -19 -48 -30 -45 -46 6 -41 32 -45 93 -15 50 24 56
30 53 55 -4 37 -39 39 -101 6z"/>
<path d="M2622 2368 c-7 -7 -12 -29 -12 -49 0 -67 52 -78 74 -16 19 52 -27
100 -62 65z"/>
</g>
</svg>
